<svg width="16px" height="11px" viewBox="0 0 16 11" version="1.1" xmlns="http://www.w3.org/2000/svg" xmlns:xlink="http://www.w3.org/1999/xlink">
    <g transform="translate(-4.000000, -6.000000)" fill="#FFFFFF" fill-rule="nonzero">
        <path d="M14.2426407,4.75735931 C14.6568542,4.75735931 14.9926407,5.09314575 14.9926407,5.50735931 L14.9926407,18.0073593 C14.9926407,18.4215729 14.6568542,18.7573593 14.2426407,18.7573593 C13.8284271,18.7573593 13.4926407,18.4215729 13.4926407,18.0073593 L13.4926407,5.50735931 C13.4926407,5.09314575 13.8284271,4.75735931 14.2426407,4.75735931 Z" id="Rectangle" transform="translate(14.242641, 11.757359) rotate(-315.000000) translate(-14.242641, -11.757359) "></path>
        <path d="M7.35875721,9.87867966 C7.77297077,9.87867966 8.10875721,10.2144661 8.10875721,10.6286797 L8.10875721,17.1286797 C8.10875721,17.5428932 7.77297077,17.8786797 7.35875721,17.8786797 C6.94454365,17.8786797 6.60875721,17.5428932 6.60875721,17.1286797 L6.60875721,10.6286797 C6.60875721,10.2144661 6.94454365,9.87867966 7.35875721,9.87867966 Z" id="Rectangle" transform="translate(7.358757, 13.878680) rotate(-225.000000) translate(-7.358757, -13.878680) "></path>
    </g>
</svg>